<svg xmlns="http://www.w3.org/2000/svg" version="1.1" viewBox="-5.0 -10.0 110.0 135.0">
 <path d="m50.848 26.109c-1.2969 0-2.4453 0.93359-2.668 2.2539-0.15234 0.90234 0.15625 1.7734 0.75781 2.3711 0.38281 0.38281 0.88281 0.65625 1.457 0.75391l1.3125 0.22266 1.2227 0.28516 1.1992 0.35156 1.1758 0.42578 1.1484 0.49219 1.1172 0.55859 1.0859 0.62891 1.043 0.6875 1 0.75 0.95703 0.80859 0.90625 0.85938 0.83984 0.90234 0.78516 0.94531 0.73047 0.98828 0.66797 1.0312 0.60937 1.0703 0.54688 1.1016 0.48047 1.1328 0.41406 1.1562 0.34375 1.1836 0.27734 1.1992 0.21875 1.2891c0.097657 0.57422 0.37109 1.0742 0.75391 1.4609 0.49609 0.49609 1.1797 0.79297 1.9141 0.79297 0.14844 0 0.30469-0.011719 0.45703-0.039062 1.4727-0.25 2.4648-1.6484 2.2148-3.125l-0.23047-1.3672-0.03125-0.15234-0.3125-1.3555-0.039063-0.15234-0.39062-1.332-0.050781-0.14844-0.46484-1.3086-0.058594-0.14453-0.54297-1.2773-0.066406-0.14453-0.61328-1.2422-0.074219-0.14063-0.6875-1.207-0.082031-0.13281-0.75781-1.1641-0.089843-0.12891-0.82031-1.1172-0.097656-0.125-0.88672-1.0703-0.10547-0.11719-0.94531-1.0156-0.11328-0.11328v0.003906l-1.0234-0.97656-0.11719-0.10547-1.0781-0.91016-0.125-0.10156-1.1328-0.84766-0.12891-0.089844-1.1797-0.77734-0.13672-0.085938-1.2227-0.70703-0.14063-0.074219-1.2617-0.63281-0.14453-0.066407-1.2969-0.55859-0.15234-0.058594-1.3242-0.47656-0.15625-0.050781-1.3516-0.39844-0.15625-0.042969-1.375-0.31641-0.15625-0.03125-1.3906-0.23828c-0.15625-0.027344-0.30859-0.039063-0.45703-0.039063zm-2.5-13.176c-1.3008 0-2.4492 0.93359-2.6758 2.2617-0.15234 0.90234 0.16016 1.7734 0.76172 2.375 0.38281 0.38672 0.88672 0.66016 1.4609 0.75781l2.3906 0.40234 2.2773 0.53125 2.2461 0.66016 2.1992 0.79297 2.1523 0.92578 2.0938 1.0469 2.0273 1.1719 1.9531 1.2891 1.8711 1.4023 1.7891 1.5078 1.6953 1.6172 1.5703 1.6797 1.4688 1.7695 1.3633 1.8555 1.2539 1.9297 1.1406 1.9961 1.0195 2.0625 0.90234 2.1211 0.77344 2.168 0.64453 2.207 0.51953 2.2422 0.39844 2.3438c0.097657 0.57812 0.37109 1.082 0.75391 1.4648 0.5 0.5 1.1875 0.79688 1.9219 0.79688 0.14844 0 0.30469-0.011719 0.45703-0.039062 1.4805-0.25 2.4727-1.6523 2.2227-3.1328l-0.41406-2.4219-0.03125-0.15625-0.55078-2.3984-0.039062-0.15234-0.69141-2.3594-0.050782-0.15234-0.82812-2.3125-0.054687-0.14844-0.96094-2.2656-0.066406-0.14063-1.0938-2.207-0.074219-0.14062-1.2148-2.1367-0.085938-0.13281-1.3398-2.0625-0.089844-0.12891-1.457-1.9805-0.097656-0.125-1.5703-1.8945-0.10547-0.11719-1.6758-1.7969-0.11328-0.11328-1.8125-1.7266-0.12109-0.10547-1.9102-1.6172-0.125-0.097656-2.0039-1.5-0.12891-0.09375-2.0898-1.375-0.13672-0.085938-2.1641-1.25-0.14453-0.078124-2.2344-1.1211-0.14844-0.066406-2.2969-0.98828-0.14844-0.058594-2.3555-0.84766-0.15234-0.050781-2.3984-0.70703-0.15625-0.042969-2.4375-0.5625-0.15625-0.03125-2.4688-0.41797c-0.15234-0.027344-0.30469-0.039062-0.45703-0.039062zm-19.953 6.0508c-1.7812 0-3.5625 0.66016-4.9414 1.9883l-8.4453 8.4453c-1.5977 1.625-2.2695 3.8203-1.9961 5.918v0.003906c1.4492 10.918 8.2188 23.332 18.281 33.398 10.027 10.023 22.383 16.777 33.273 18.262h0.003906c0.30078 0.042969 0.60547 0.0625 0.90625 0.0625 1.8281 0 3.6641-0.73438 5.0664-2.1094l8.4453-8.4492c2.6836-2.7891 2.6562-7.2266-0.10156-9.9844l-8.8125-8.8008c-1.3945-1.3984-3.2227-2.0977-5.0508-2.0977-1.7812 0-3.5586 0.66406-4.9336 1.9883l-7.1758 7.1641c-3.2305-2.2539-6.457-4.9375-9.5859-8.0664l-0.003906-0.003906c-3.1719-3.1719-5.8906-6.4492-8.1602-9.7305l7.1406-7.1484c2.6836-2.7891 2.6523-7.2305-0.097657-9.9805l-8.7773-8.7734c-1.3906-1.3906-3.2148-2.0859-5.0352-2.0859z"/>
</svg>