<svg width="20" height="20" viewBox="0 0 20 20" fill="none" xmlns="http://www.w3.org/2000/svg">
<path d="M10.0002 5.15732C8.80801 5.15732 7.66461 5.63118 6.82157 6.47466C5.97854 7.31813 5.50493 8.46213 5.50493 9.65498C5.50493 10.8478 5.97854 11.9918 6.82157 12.8353C7.66461 13.6788 8.80801 14.1526 10.0002 14.1526C11.1925 14.1526 12.3359 13.6788 13.1789 12.8353C14.0219 11.9918 14.4956 10.8478 14.4956 9.65498C14.4956 8.46213 14.0219 7.31813 13.1789 6.47466C12.3359 5.63118 11.1925 5.15732 10.0002 5.15732ZM10.0002 12.4663C9.25535 12.4652 8.5413 12.1687 8.01459 11.6417C7.48787 11.1147 7.19148 10.4003 7.19037 9.65498C7.19037 8.10419 8.45145 6.84365 10.0002 6.84365C11.549 6.84365 12.8101 8.10419 12.8101 9.65498C12.809 10.4003 12.5126 11.1147 11.9859 11.6417C11.4592 12.1687 10.7451 12.4652 10.0002 12.4663ZM14.833 5.41939C14.7528 5.42193 14.6729 5.40832 14.5981 5.37937C14.5233 5.35042 14.455 5.30672 14.3974 5.25087C14.3398 5.19501 14.294 5.12815 14.2627 5.05423C14.2314 4.98032 14.2153 4.90087 14.2153 4.8206C14.2153 4.74033 14.2314 4.66088 14.2627 4.58697C14.294 4.51305 14.3398 4.44619 14.3974 4.39033C14.455 4.33448 14.5233 4.29078 14.5981 4.26183C14.6729 4.23288 14.7528 4.21927 14.833 4.22181C14.9884 4.22673 15.1359 4.29198 15.2441 4.40374C15.3523 4.51549 15.4128 4.66499 15.4128 4.8206C15.4128 4.97621 15.3523 5.12571 15.2441 5.23746C15.1359 5.34922 14.9884 5.41447 14.833 5.41939ZM13.3717 0.659668H6.62875C5.13851 0.659827 3.70936 1.2522 2.6556 2.30651C1.60184 3.36082 1.00977 4.79072 1.00961 6.28174V13.0282C1.00977 14.5192 1.60184 15.9491 2.6556 17.0035C3.70936 18.0578 5.13851 18.6501 6.62875 18.6503H13.3717C14.862 18.6501 16.2911 18.0578 17.3449 17.0035C18.3986 15.9491 18.9907 14.5192 18.9909 13.0282V6.28174C18.9907 4.79072 18.3986 3.36082 17.3449 2.30651C16.2911 1.2522 14.862 0.659827 13.3717 0.659668ZM17.3054 13.0282C17.3043 14.0717 16.8895 15.0721 16.152 15.81C15.4146 16.5478 14.4147 16.9629 13.3717 16.964H6.62875C5.58581 16.9629 4.58591 16.5478 3.84844 15.81C3.11096 15.0721 2.69617 14.0717 2.69506 13.0282V6.28174C2.69617 5.23825 3.11096 4.23783 3.84844 3.49997C4.58591 2.76212 5.58581 2.3471 6.62875 2.34599H13.3717C14.4147 2.3471 15.4146 2.76212 16.152 3.49997C16.8895 4.23783 17.3043 5.23825 17.3054 6.28174V13.0282Z" fill="white"/>
</svg>
