<svg xmlns="http://www.w3.org/2000/svg" version="1.1" viewBox="-5.0 -10.0 110.0 135.0">
 <path d="m45.477 94.934-24.875-40.016c-6.7148-10.797-7.0234-23.652-0.83984-34.773 2.6953-4.8516 6.8789-9.6641 12.617-13.039 4.7734-2.8047 10.555-4.6094 17.352-4.6094 4.1641 0 7.7422 0.47266 11.715 1.8047 8.3555 2.8008 14.742 8.5469 18.793 15.844 6.1836 11.121 5.8711 23.977-0.83984 34.773l-24.922 40.098c-2.1055 3.3789-7.0117 3.2656-9-0.082031zm4.5234-71.125c-7.9375 0-14.375 6.4375-14.375 14.379 0 7.9375 6.4375 14.375 14.375 14.375s14.375-6.4375 14.375-14.375-6.4336-14.379-14.375-14.379z" fill-rule="evenodd"/>
</svg>