<svg xmlns="http://www.w3.org/2000/svg" version="1.1" viewBox="-5.0 -10.0 110.0 135.0">
 <path d="m49.539 46.828 30.879-22.852c-0.89062-0.42187-1.8711-0.66016-2.9102-0.66016l-58.18 0.003906c-0.67969 0-1.3398 0.10156-1.9609 0.28906l31.039 23.211c0.34375 0.25781 0.79297 0.25781 1.1328 0.007813z"/>
 <path d="m84.32 64.25v-34.109c0-0.5-0.058593-0.98828-0.16016-1.4609l-31.051 22.969c-1.2383 0.92187-2.6797 1.3711-4.1289 1.3711-1.4609 0-2.9219-0.46094-4.1602-1.3906l-31.879-23.84c-0.26953 0.73047-0.42969 1.5195-0.42969 2.3516v34.109c0 3.7617 3.0586 6.8203 6.8203 6.8203h58.168c3.7617 0 6.8203-3.0586 6.8203-6.8203z"/>
</svg>