<svg width="20" height="20" viewBox="0 0 20 20" fill="none" xmlns="http://www.w3.org/2000/svg">
<path d="M10.2601 0.0600586C5.00361 0.0600586 2.20813 3.4303 2.20813 7.10519C2.20813 8.8095 3.15994 10.9348 4.68355 11.6088C4.91491 11.7132 5.04078 11.6688 5.09232 11.4541C5.13787 11.291 5.33807 10.5054 5.43516 10.1348C5.45242 10.077 5.45397 10.0156 5.43964 9.95703C5.42531 9.89842 5.39563 9.8447 5.35365 9.80138C4.84778 9.21609 4.4462 8.14984 4.4462 7.14956C4.4462 4.5865 6.48287 2.0978 9.94846 2.0978C12.9453 2.0978 15.0419 4.04558 15.0419 6.83173C15.0419 9.98009 13.3769 12.1582 11.2131 12.1582C10.0156 12.1582 9.12372 11.2178 9.40662 10.0545C9.74827 8.66917 10.4184 7.17955 10.4184 6.18047C10.4184 5.28454 9.9125 4.54332 8.87917 4.54332C7.66005 4.54332 6.67108 5.75109 6.67108 7.37265C6.67108 8.40291 7.0355 9.09855 7.0355 9.09855C7.0355 9.09855 5.82955 13.9728 5.60539 14.8831C5.22658 16.4243 5.65693 18.9202 5.69409 19.1349C5.71687 19.2537 5.84993 19.2908 5.92425 19.1937C6.04293 19.0378 7.50061 16.9569 7.90939 15.4528C8.05803 14.9047 8.66819 12.6823 8.66819 12.6823C9.06978 13.4079 10.229 14.016 11.4637 14.016C15.1366 14.016 17.7907 10.7861 17.7907 6.77776C17.7775 2.93496 14.4905 0.0600586 10.2601 0.0600586Z" fill="white"/>
</svg>
