<svg width="20" height="20" viewBox="0 0 20 20" fill="none" xmlns="http://www.w3.org/2000/svg">
<path d="M15.2559 3.05859H4.74348C3.75297 3.05859 2.80304 3.45228 2.10264 4.15303C1.40225 4.85379 1.00877 5.80422 1.00877 6.79525V12.0533C1.00877 13.0443 1.40225 13.9948 2.10264 14.6955C2.80304 15.3963 3.75297 15.79 4.74348 15.79H15.2559C16.2464 15.79 17.1964 15.3963 17.8968 14.6955C18.5971 13.9948 18.9906 13.0443 18.9906 12.0533V6.79525C18.9906 6.30454 18.894 5.81864 18.7063 5.36529C18.5187 4.91194 18.2436 4.50001 17.8968 4.15303C17.55 3.80605 17.1382 3.53081 16.6851 3.34303C16.232 3.15525 15.7464 3.05859 15.2559 3.05859ZM12.7308 9.67974L7.81408 12.0263C7.78399 12.0405 7.75081 12.0469 7.71759 12.0449C7.68438 12.0429 7.65221 12.0326 7.62406 12.0148C7.59592 11.997 7.5727 11.9725 7.55657 11.9433C7.54044 11.9142 7.53191 11.8815 7.53177 11.8482V7.00874C7.53187 6.97503 7.54057 6.9419 7.55705 6.9125C7.57353 6.8831 7.59724 6.8584 7.62594 6.84074C7.65464 6.82308 7.68737 6.81305 7.72103 6.81159C7.75469 6.81014 7.78816 6.81731 7.81827 6.83243L12.7349 9.32533C12.7677 9.34211 12.7952 9.36771 12.8142 9.39925C12.8332 9.43078 12.843 9.46701 12.8426 9.50384C12.8422 9.54067 12.8315 9.57665 12.8117 9.60772C12.7919 9.6388 12.7639 9.66374 12.7308 9.67974Z" fill="white"/>
</svg>
