<svg id="Слой_1" data-name="Слой 1" xmlns="http://www.w3.org/2000/svg" viewBox="0 0 283.46 283.46" preserveAspectRatio="xMidYMid slice" width="282px" height="100px"><defs><style>.cls-1{fill:#5a5456;}.cls-2{fill:#d3a167;}.cls-3{fill:#FFFFFF;}</style></defs><title>RGB_Logo-Color_V01-1</title><polygon class="cls-1" points="65.31 119.6 59.9 127.24 54.49 119.6 58.76 119.6 59.95 121.27 61.13 119.6 65.31 119.6"/><polygon class="cls-2" points="42.17 119.57 46.41 119.57 59.94 138.59 73.43 119.57 77.62 119.57 59.9 144.59 42.17 119.57"/><polygon class="cls-2" points="42.17 162.22 42.17 130.59 59.9 155.52 77.62 130.59 77.62 162.22 73.39 157.94 73.43 144.87 59.94 163.9 46.45 144.97 46.45 158.04 42.17 162.22"/><polygon class="cls-1" points="42.17 119.57 42.17 130.59 59.9 155.52 77.62 130.59 77.62 119.57 59.9 144.59 42.17 119.57"/><path class="cls-3" d="M59.19,131.09v.33H57.61v-2.11h1.54v.33H58v.55h1v.32H58v.58Z"/><path class="cls-3" d="M62.09,131.09v.33H60.51v-2.11h1.54v.33H60.9v.55h1v.32h-1v.58Z"/><path class="cls-3" d="M96.64,143.44H95.15l-4.81-20.13v20.16H89V120.7h2.15l4.78,20.13,4.75-20.13h2.14v22.77h-1.43V123.24Z"/><path class="cls-3" d="M113.75,120.7v22.77h-1.5V120.7Z"/><path class="cls-3" d="M123.18,143.47V120.7h1.5v21.4h7.15v1.37Z"/><path class="cls-3" d="M140.9,143.47V120.7h1.5v21.4h7.15v1.37Z"/><path class="cls-3" d="M166.33,131.24v1.37h-6.21v9.49h7.48v1.37h-9V120.7h9v1.37h-7.48v9.17Z"/><path class="cls-3" d="M178.23,143.47h-1.36V120.7h1.95l6.83,19.22V120.7H187v22.77h-1.65l-7.13-20.29Z"/><path class="cls-3" d="M197.91,120.7v22.77h-1.5V120.7Z"/><path class="cls-3" d="M208.77,138c0,2.44.91,4.33,3.41,4.33s3.42-1.89,3.42-4.33V120.7H217v17.21c0,3.25-1.37,5.75-4.85,5.75s-4.88-2.5-4.88-5.75V120.7h1.5Z"/><path class="cls-3" d="M234,143.44h-1.5l-4.81-20.13v20.16H226.4V120.7h2.14l4.78,20.13,4.75-20.13h2.15v22.77h-1.43V123.24Z"/><path class="cls-3" d="M90.55,155.47c1.22,0,1.84.49,1.84,1.75v.89c0,1.19-.52,1.88-1.75,1.88H88.91v-7.87h3.18v.47H89.43v2.88Zm.09,4c.88,0,1.23-.48,1.23-1.37v-.95c0-1-.44-1.24-1.32-1.24H89.43v3.56Z"/><path class="cls-3" d="M99.84,154v4c0,1.15-.53,2-1.73,2s-1.73-.84-1.73-2v-1.77H95V160H94.5v-7.87H95v3.7h1.36V154c0-1.15.51-2,1.73-2S99.84,152.89,99.84,154Zm-3,0v4.09c0,.85.34,1.48,1.22,1.48s1.21-.63,1.21-1.48V154c0-.86-.35-1.49-1.21-1.49S96.89,153.15,96.89,154Z"/><path class="cls-3" d="M103.57,152.12c1.22,0,1.69.76,1.69,1.91v.85c0,1.25-.57,1.87-1.82,1.87h-1V160h-.52v-7.87Zm-.13,4.16c.91,0,1.3-.41,1.3-1.36V154c0-.85-.29-1.4-1.17-1.4h-1.11v3.69Z"/><path class="cls-3" d="M107.24,154c0-1.15.53-2,1.72-2s1.74.84,1.74,2v4c0,1.15-.53,2-1.74,2s-1.72-.84-1.72-2Zm.52,4.06c0,.85.33,1.48,1.2,1.48s1.22-.63,1.22-1.48V154c0-.86-.34-1.49-1.22-1.49s-1.2.63-1.2,1.49Z"/><path class="cls-3" d="M116.83,156.29l-.54.85V160h-.52v-7.87h.52v4.16l2.56-4.16h.54l-2.25,3.66,2.4,4.21H119Z"/><path class="cls-3" d="M121.52,154c0-1.15.53-2,1.72-2s1.74.84,1.74,2v4c0,1.15-.53,2-1.74,2s-1.72-.84-1.72-2Zm.51,4.06c0,.85.34,1.48,1.21,1.48s1.22-.63,1.22-1.48V154c0-.86-.35-1.49-1.22-1.49S122,153.15,122,154Z"/><path class="cls-3" d="M129.71,160h-.51l-1.67-7v7h-.46v-7.87h.74l1.66,7,1.64-7h.74V160h-.5v-7Z"/><path class="cls-3" d="M134.5,152.59V160H134v-7.87h3.49V160H137v-7.4Z"/><path class="cls-3" d="M141.18,152.59l-.2,5.47c0,1.07-.23,1.92-1.38,1.94h-.11v-.47c.89,0,.95-.67,1-1.45l.24-6h2.93V160h-.53v-7.4Z"/><path class="cls-3" d="M148.44,155.76v.47H146.3v3.28h2.58V160h-3.1v-7.87h3.1v.47H146.3v3.17Z"/><path class="cls-3" d="M152,156.29l-.54.85V160H151v-7.87h.52v4.16l2.56-4.16h.54l-2.25,3.66,2.4,4.21h-.54Z"/><path class="cls-3" d="M158.21,160v-7.4h-1.6v-.47h3.73v.47h-1.61V160Z"/><path class="cls-3" d="M163.09,158.24,162.7,160h-.47l1.72-7.88h.75l1.76,7.88h-.52l-.4-1.75Zm.08-.45h2.3l-1.16-5.09Z"/><path class="cls-3" d="M172.26,161v-1h-3.63v-7.87h.5v7.39h2.45v-7.39h.53v7.39h.65V161Z"/><path class="cls-3" d="M176.69,156.29l-1.3,3.7h-.56v-7.87h.47v6.73l1.15-3.21,1.27-3.52h.62V160h-.47v-7Z"/><path class="cls-3" d="M182.32,156.29,181,160h-.57v-7.87h.48v6.73l1.14-3.21,1.27-3.52H184V160h-.47v-7Z"/><path class="cls-3" d="M190.93,156.29l-1.29,3.7h-.56v-7.87h.47v6.73l1.15-3.21,1.27-3.52h.61V160h-.47v-7Z"/><path class="cls-3" d="M195.23,156.29V160h-.52v-7.87h.52v3.7h2.45v-3.7h.53V160h-.53v-3.7Z"/><path class="cls-3" d="M201.81,160v-7.4h-1.6v-.47h3.73v.47h-1.61V160Z"/><path class="cls-3" d="M208.61,155.76v.47h-2.15v3.28H209V160h-3.1v-7.87H209v.47h-2.58v3.17Z"/><path class="cls-3" d="M212.75,152.12c1.22,0,1.69.76,1.69,1.91v.85c0,1.25-.57,1.87-1.82,1.87h-1V160h-.52v-7.87Zm-.13,4.16c.91,0,1.3-.41,1.3-1.36V154c0-.85-.29-1.4-1.17-1.4h-1.11v3.69Z"/><path class="cls-3" d="M217.94,155.35c1.26,0,1.83.62,1.83,1.87v.86c0,1.14-.47,1.91-1.7,1.91h-1.62v-7.87H217v3.23Zm.13,4.16c.88,0,1.18-.55,1.18-1.4v-.92c0-1-.4-1.36-1.31-1.36h-1v3.68Z"/><path class="cls-3" d="M224.51,155.76v.47h-2.14v3.28H225V160h-3.1v-7.87H225v.47h-2.58v3.17Z"/><path class="cls-3" d="M228.66,152.12c1.22,0,1.69.76,1.69,1.91v.85c0,1.25-.57,1.87-1.82,1.87h-1V160H227v-7.87Zm-.13,4.16c.91,0,1.3-.41,1.3-1.36V154c0-.85-.29-1.4-1.17-1.4h-1.11v3.69Z"/><path class="cls-3" d="M232.33,154c0-1.15.53-2,1.72-2s1.74.84,1.74,2v4c0,1.15-.53,2-1.74,2s-1.72-.84-1.72-2Zm.52,4.06c0,.85.33,1.48,1.2,1.48s1.22-.63,1.22-1.48V154c0-.86-.34-1.49-1.22-1.49s-1.2.63-1.2,1.49Z"/><path class="cls-3" d="M239.54,152.12c1.18,0,1.6.58,1.6,1.67v.45c0,.86-.23,1.38-1,1.55.85.17,1.18.8,1.18,1.69v.69c0,1.13-.52,1.82-1.72,1.82h-1.69v-7.87Zm-.26,3.47c.92,0,1.35-.25,1.35-1.25v-.5c0-.82-.26-1.25-1.11-1.25H238.4v3Zm.29,3.92c.87,0,1.2-.48,1.2-1.36v-.7c0-1-.46-1.39-1.39-1.39h-1v3.45Z" /></svg>