<svg width="45" height="46" viewBox="0 0 45 46" fill="none" xmlns="http://www.w3.org/2000/svg">
<path d="M9.38673 0.149902H35.5149L30.8152 9.40725H14.1005L9.38673 0.149902ZM3.55782 8.39334H3.54376C3.5228 8.36968 3.51123 8.33917 3.51123 8.30756C3.51123 8.27595 3.5228 8.24544 3.54376 8.22178L8.3011 0.221621C8.34187 0.178385 8.39783 0.152671 8.4572 0.149902L8.58657 0.149902V0.178027L21.0291 24.478C18.3968 24.8238 15.9875 26.1373 14.2706 28.1624L14.258 28.1779L3.55782 8.39334Z" fill="#745F3D"/>
<path d="M22.4579 25.1641C20.4801 25.1641 18.5467 25.7505 16.9022 26.8493C15.2578 27.9481 13.9761 29.5099 13.2192 31.3371C12.4623 33.1644 12.2643 35.175 12.6502 37.1148C13.036 39.0546 13.9884 40.8364 15.3869 42.2349C16.7854 43.6334 18.5672 44.5858 20.507 44.9716C22.4468 45.3575 24.4574 45.1594 26.2846 44.4026C28.1119 43.6457 29.6736 42.364 30.7724 40.7195C31.8712 39.0751 32.4577 37.1417 32.4577 35.1639V35.1498C32.4579 33.8384 32.1997 32.5398 31.698 31.3282C31.1962 30.1166 30.4606 29.0157 29.5333 28.0884C28.606 27.1611 27.5051 26.4256 26.2935 25.9238C25.0819 25.422 23.7833 25.1639 22.4719 25.1641H22.4564H22.4579ZM22.4579 40.5217C21.3982 40.5217 20.3623 40.2075 19.4812 39.6188C18.6001 39.03 17.9134 38.1933 17.5079 37.2143C17.1024 36.2352 16.9963 35.158 17.203 34.1186C17.4097 33.0793 17.92 32.1247 18.6693 31.3754C19.4186 30.6261 20.3733 30.1158 21.4126 29.909C22.4519 29.7023 23.5292 29.8084 24.5082 30.2139C25.4872 30.6195 26.324 31.3062 26.9127 32.1873C27.5014 33.0684 27.8157 34.1042 27.8157 35.1639C27.8157 36.5849 27.2512 37.9477 26.2464 38.9525C25.2416 39.9572 23.8788 40.5217 22.4579 40.5217Z" fill="#745F3D"/>
<path d="M22.4579 30.7217C21.5788 30.7214 20.7195 30.9818 19.9885 31.47C19.2575 31.9582 18.6877 32.6522 18.3512 33.4642C18.0147 34.2763 17.9266 35.1699 18.098 36.032C18.2694 36.8942 18.6927 37.6861 19.3142 38.3076C19.9358 38.9292 20.7277 39.3524 21.5899 39.5239C22.452 39.6953 23.3456 39.6072 24.1576 39.2706C24.9697 38.9341 25.6637 38.3644 26.1519 37.6334C26.6401 36.9024 26.9005 36.043 26.9002 35.164C26.8998 33.986 26.4317 32.8562 25.5987 32.0232C24.7656 31.1902 23.6359 30.7221 22.4579 30.7217ZM22.4579 36.95C22.1046 36.95 21.7593 36.8452 21.4656 36.649C21.1719 36.4527 20.943 36.1738 20.8079 35.8475C20.6727 35.5211 20.6373 35.162 20.7062 34.8156C20.7751 34.4692 20.9452 34.1509 21.195 33.9012C21.4448 33.6514 21.763 33.4813 22.1094 33.4124C22.4559 33.3435 22.815 33.3789 23.1413 33.514C23.4676 33.6492 23.7466 33.8781 23.9428 34.1718C24.139 34.4655 24.2438 34.8108 24.2438 35.164C24.2438 35.6377 24.0556 36.0919 23.7207 36.4269C23.3858 36.7618 22.9315 36.95 22.4579 36.95Z" fill="#745F3D"/>
<path d="M23.6167 34.8801C23.6525 35.0318 23.6581 35.189 23.6331 35.3429C23.6082 35.4968 23.5532 35.6442 23.4712 35.7768C23.3893 35.9094 23.282 36.0246 23.1556 36.1158C23.0291 36.2069 22.8859 36.2723 22.7342 36.3081C22.5825 36.3439 22.4253 36.3495 22.2714 36.3246C22.1175 36.2996 21.9701 36.2446 21.8375 36.1627C21.7049 36.0807 21.5897 35.9735 21.4985 35.847C21.4074 35.7206 21.342 35.5774 21.3062 35.4257C21.2338 35.1193 21.2862 34.7967 21.4516 34.5289C21.6171 34.2611 21.8822 34.07 22.1886 33.9976C22.495 33.9253 22.8176 33.9776 23.0854 34.1431C23.3532 34.3086 23.5443 34.5737 23.6167 34.8801ZM41.3579 8.39334L30.6578 28.2355C28.9537 26.215 26.5605 24.8986 23.9415 24.5413L23.8867 24.5357L36.301 0.235684H36.3151C36.3285 0.2099 36.3486 0.188272 36.3734 0.173149C36.3982 0.158026 36.4267 0.149986 36.4557 0.149902H36.5443C36.5724 0.163965 36.5865 0.19209 36.602 0.207559H36.616L41.3593 8.19365C41.379 8.22178 41.3917 8.25553 41.3917 8.2935C41.3917 8.33146 41.3776 8.36522 41.3579 8.39334Z" fill="#745F3D"/>
</svg>
