<svg width="45" height="46" viewBox="0 0 45 46" fill="none" xmlns="http://www.w3.org/2000/svg">
<path d="M29.9714 24.4961C34.366 24.4961 43.155 26.6941 43.155 31.0886V35.7475H31.905V31.0886C31.905 28.2761 30.4102 26.1667 28.2136 24.5847C28.8296 24.4961 29.4441 24.4961 29.9714 24.4961ZM15.03 24.4961C19.4246 24.4961 28.1264 26.6941 28.1264 31.0886V35.7475H1.84644V31.0886C1.84644 26.6941 10.6355 24.4961 15.03 24.4961ZM15.03 20.8047C11.9532 20.8047 9.40503 18.2552 9.40503 15.1797C9.40503 12.1042 11.9546 9.55469 15.03 9.55469C18.1055 9.55469 20.5678 12.1042 20.5678 15.1797C20.5678 18.2552 18.1069 20.8047 15.03 20.8047ZM29.9714 20.8047C26.8946 20.8047 24.3464 18.2552 24.3464 15.1797C24.3464 12.1042 26.896 9.55469 29.9714 9.55469C33.0469 9.55469 35.5964 12.1042 35.5964 15.1797C35.5964 18.2552 33.0469 20.8047 29.9714 20.8047Z" fill="#ccb56b"/>
</svg>
