<svg width="45" height="46" viewBox="0 0 45 46" fill="none" xmlns="http://www.w3.org/2000/svg">
<path d="M1.28559 9.16396C0.924608 9.21288 0.594194 9.39278 0.357206 9.66944C0.120217 9.9461 -0.00681198 10.3002 0.000281845 10.6644V45.1499H4.50028V34.6494C4.50028 33.8212 5.17106 33.149 6.00075 33.149H12.0012C12.8295 33.149 13.5017 33.8197 13.5017 34.6494V45.1499H18.0017V6.79303L1.287 9.16396H1.28559ZM6.00075 28.6504H4.50028C4.10233 28.6504 3.72068 28.4923 3.43929 28.2109C3.1579 27.9295 2.99981 27.5479 2.99981 27.1499C2.99981 26.752 3.1579 26.3703 3.43929 26.0889C3.72068 25.8075 4.10233 25.6494 4.50028 25.6494H6.00075C6.3987 25.6494 6.78035 25.8075 7.06174 26.0889C7.34313 26.3703 7.50122 26.752 7.50122 27.1499C7.50122 27.5479 7.34313 27.9295 7.06174 28.2109C6.78035 28.4923 6.3987 28.6504 6.00075 28.6504ZM6.00075 21.1649H4.50028C4.10233 21.1649 3.72068 21.0068 3.43929 20.7254C3.1579 20.444 2.99981 20.0624 2.99981 19.6644C2.99981 19.2665 3.1579 18.8848 3.43929 18.6034C3.72068 18.322 4.10233 18.164 4.50028 18.164H6.00075C6.3987 18.164 6.78035 18.322 7.06174 18.6034C7.34313 18.8848 7.50122 19.2665 7.50122 19.6644C7.50122 20.0624 7.34313 20.444 7.06174 20.7254C6.78035 21.0068 6.3987 21.1649 6.00075 21.1649ZM13.5003 28.6504H11.9998C11.6019 28.6504 11.2202 28.4923 10.9388 28.2109C10.6574 27.9295 10.4993 27.5479 10.4993 27.1499C10.4993 26.752 10.6574 26.3703 10.9388 26.0889C11.2202 25.8075 11.6019 25.6494 11.9998 25.6494H13.5003C13.8982 25.6494 14.2799 25.8075 14.5613 26.0889C14.8427 26.3703 15.0008 26.752 15.0008 27.1499C15.0008 27.5479 14.8427 27.9295 14.5613 28.2109C14.2799 28.4923 13.8982 28.6504 13.5003 28.6504ZM13.5003 21.1649H11.9998C11.6019 21.1649 11.2202 21.0068 10.9388 20.7254C10.6574 20.444 10.4993 20.0624 10.4993 19.6644C10.4993 19.2665 10.6574 18.8848 10.9388 18.6034C11.2202 18.322 11.6019 18.164 11.9998 18.164H13.5003C13.8982 18.164 14.2799 18.322 14.5613 18.6034C14.8427 18.8848 15.0008 19.2665 15.0008 19.6644C15.0008 20.0624 14.8427 20.444 14.5613 20.7254C14.2799 21.0068 13.8982 21.1649 13.5003 21.1649ZM43.272 0.163965L22.2725 3.1635C21.9115 3.21241 21.5811 3.39231 21.3441 3.66897C21.1071 3.94563 20.9801 4.29975 20.9872 4.66396V45.1499H28.4867V34.6494C28.4867 33.8212 29.1575 33.149 29.9872 33.149H35.9876C36.8159 33.149 37.4881 33.8197 37.4881 34.6494V45.1499H44.9876V1.66443C44.9914 1.26672 44.8371 0.88379 44.5586 0.599797C44.2802 0.315804 43.9003 0.153985 43.5026 0.149902C43.4309 0.149902 43.3578 0.149902 43.272 0.163965ZM29.9858 28.6504H26.9862C26.5883 28.6504 26.2066 28.4923 25.9252 28.2109C25.6438 27.9295 25.4857 27.5479 25.4857 27.1499C25.4857 26.752 25.6438 26.3703 25.9252 26.0889C26.2066 25.8075 26.5883 25.6494 26.9862 25.6494H29.9858C30.3837 25.6494 30.7653 25.8075 31.0467 26.0889C31.3281 26.3703 31.4862 26.752 31.4862 27.1499C31.4862 27.5479 31.3281 27.9295 31.0467 28.2109C30.7653 28.4923 30.3837 28.6504 29.9858 28.6504ZM29.9858 21.1649H26.9862C26.5883 21.1649 26.2066 21.0068 25.9252 20.7254C25.6438 20.444 25.4857 20.0624 25.4857 19.6644C25.4857 19.2665 25.6438 18.8848 25.9252 18.6034C26.2066 18.322 26.5883 18.164 26.9862 18.164H29.9858C30.3837 18.164 30.7653 18.322 31.0467 18.6034C31.3281 18.8848 31.4862 19.2665 31.4862 19.6644C31.4862 20.0624 31.3281 20.444 31.0467 20.7254C30.7653 21.0068 30.3837 21.1649 29.9858 21.1649ZM29.9858 13.664H26.9862C26.5883 13.664 26.2066 13.5059 25.9252 13.2245C25.6438 12.9431 25.4857 12.5614 25.4857 12.1635C25.4857 11.7655 25.6438 11.3839 25.9252 11.1025C26.2066 10.8211 26.5883 10.663 26.9862 10.663H29.9858C30.3837 10.663 30.7653 10.8211 31.0467 11.1025C31.3281 11.3839 31.4862 11.7655 31.4862 12.1635C31.4862 12.5614 31.3281 12.9431 31.0467 13.2245C30.7653 13.5059 30.3837 13.664 29.9858 13.664ZM38.9857 28.6504H35.9862C35.5883 28.6504 35.2066 28.4923 34.9252 28.2109C34.6438 27.9295 34.4858 27.5479 34.4858 27.1499C34.4858 26.752 34.6438 26.3703 34.9252 26.0889C35.2066 25.8075 35.5883 25.6494 35.9862 25.6494H38.9857C39.3837 25.6494 39.7654 25.8075 40.0467 26.0889C40.3281 26.3703 40.4862 26.752 40.4862 27.1499C40.4862 27.5479 40.3281 27.9295 40.0467 28.2109C39.7654 28.4923 39.3837 28.6504 38.9857 28.6504ZM38.9857 21.1649H35.9862C35.5883 21.1649 35.2066 21.0068 34.9252 20.7254C34.6438 20.444 34.4858 20.0624 34.4858 19.6644C34.4858 19.2665 34.6438 18.8848 34.9252 18.6034C35.2066 18.322 35.5883 18.164 35.9862 18.164H38.9857C39.3837 18.164 39.7654 18.322 40.0467 18.6034C40.3281 18.8848 40.4862 19.2665 40.4862 19.6644C40.4862 20.0624 40.3281 20.444 40.0467 20.7254C39.7654 21.0068 39.3837 21.1649 38.9857 21.1649ZM38.9857 13.664H35.9862C35.5883 13.664 35.2066 13.5059 34.9252 13.2245C34.6438 12.9431 34.4858 12.5614 34.4858 12.1635C34.4858 11.7655 34.6438 11.3839 34.9252 11.1025C35.2066 10.8211 35.5883 10.663 35.9862 10.663H38.9857C39.3837 10.663 39.7654 10.8211 40.0467 11.1025C40.3281 11.3839 40.4862 11.7655 40.4862 12.1635C40.4862 12.5614 40.3281 12.9431 40.0467 13.2245C39.7654 13.5059 39.3837 13.664 38.9857 13.664Z" fill="#ccb56b"/>
</svg>
