<svg width="45" height="46" viewBox="0 0 45 46" fill="none" xmlns="http://www.w3.org/2000/svg">
<path d="M4.31291 3.14937H5.81338C5.91566 7.2263 7.13011 11.1978 9.32552 14.6346C11.5209 18.0715 14.6138 20.8431 18.2699 22.6498C14.2983 24.6505 11.0077 27.7821 8.81291 31.6498H35.8129C33.6122 27.7663 30.2981 24.6314 26.2982 22.6498C29.9625 20.8476 33.0649 18.0787 35.2704 14.6419C37.4758 11.2052 38.7006 7.23135 38.8124 3.14937H40.3129C40.7109 3.14937 41.0925 2.99129 41.3739 2.7099C41.6553 2.42851 41.8134 2.04686 41.8134 1.64891C41.8134 1.25096 41.6553 0.869307 41.3739 0.587915C41.0925 0.306522 40.7109 0.148438 40.3129 0.148438H4.31291C3.91496 0.148438 3.53331 0.306522 3.25192 0.587915C2.97053 0.869307 2.81244 1.25096 2.81244 1.64891C2.81244 2.04686 2.97053 2.42851 3.25192 2.7099C3.53331 2.99129 3.91496 3.14937 4.31291 3.14937ZM40.3129 42.1503H38.8124C38.7381 39.5838 38.2308 37.0483 37.312 34.6508H7.31244C6.39453 37.0486 5.88727 39.5839 5.81197 42.1503H4.3115C3.91355 42.1503 3.5319 42.3084 3.25051 42.5898C2.96912 42.8712 2.81104 43.2528 2.81104 43.6508C2.81104 44.0487 2.96912 44.4304 3.25051 44.7118C3.5319 44.9932 3.91355 45.1512 4.3115 45.1512H40.3115C40.7095 45.1512 41.0911 44.9932 41.3725 44.7118C41.6539 44.4304 41.812 44.0487 41.812 43.6508C41.812 43.2528 41.6539 42.8712 41.3725 42.5898C41.0911 42.3084 40.7109 42.1503 40.3129 42.1503Z" fill="#ccb56b"/>
</svg>
